<?xml version="1.0" encoding="utf-8"?>
<!-- Generator: Adobe Illustrator 28.2.0, SVG Export Plug-In . SVG Version: 6.00 Build 0)  -->
<svg version="1.1" id="图层_1" xmlns="http://www.w3.org/2000/svg" xmlns:xlink="http://www.w3.org/1999/xlink" x="0px" y="0px"
	 viewBox="0 0 229.9 27.7" style="enable-background:new 0 0 229.9 27.7;" xml:space="preserve">
<style type="text/css">
	.st0{fill:#FFA300;}
	.st1{fill:#FFFFFF;}
</style>
<g id="_U_56FE_U_5C42_1">
	<path class="st0" d="M15.6,13.9L15.6,13.9v-0.1c0-1.7,0-3.4,0-5.1c0-1,0-1.9,0-2.9c0-0.7,0-1.4,0-2c0-0.4,0-0.8,0-1.3
		c0-0.2,0-0.3-0.1-0.5c-0.2-0.7-0.7-1.3-1.3-1.7C14,0,13.7,0,13.4,0.2c-0.4,0.2-0.7,0.6-0.9,1c-0.2,0.3-0.4,0.6-0.4,0.9
		c0,0.2-0.1,0.5-0.1,0.8c0,5.4,0,10.9,0,16.3c0,1.1,0,2.2,0,3.3c0,0.9,0,1.8,0,2.7c0,0.4,0.1,0.8,0.3,1.1c0.3,0.5,0.6,0.9,1.1,1.3
		c0.3,0.2,0.5,0.2,0.8,0c0,0,0.1,0,0.1-0.1c0.4-0.4,0.8-0.8,1.1-1.4c0.1-0.2,0.2-0.4,0.2-0.6c0-0.3,0-0.6,0-1c0-3.5,0-7,0-10.6
		L15.6,13.9L15.6,13.9z"/>
	<path class="st0" d="M0,7.9c0-0.2,0-0.3,0.1-0.5c0-0.2,0.1-0.3,0.2-0.5c0.2-0.6,0.6-1.1,1-1.5c0.2-0.2,0.4-0.2,0.5,0
		c0.5,0.4,0.9,0.9,1.4,1.3C4.1,7.7,5,8.7,6,9.6c0.6,0.6,1.2,1.1,1.7,1.8c0.7,0.9,1.2,1.9,1.6,3c0.1,0.4,0.2,0.7,0.3,1.1
		c0.1,0.2,0.1,0.5,0.1,0.8c0,1.8,0,3.5,0,5.3c0,0.1,0,0.2,0,0.3c0,0.2-0.1,0.2-0.2,0.2c-0.4,0.1-0.9,0-1.3-0.1
		c-0.4-0.1-0.8-0.3-1.2-0.6c-0.5-0.4-0.8-0.9-1-1.5c-0.1-0.3-0.1-0.7-0.1-1c0-0.7,0-1.5,0-2.2c0-0.6-0.1-1.1-0.3-1.6
		c-0.2-0.4-0.4-0.8-0.8-1.1c-0.5-0.5-1.1-1.1-1.6-1.6c-0.7-0.7-1.5-1.4-2.2-2.2C0.8,10,0.7,9.9,0.6,9.7C0.2,9.3,0,8.8,0,8.3
		c0,0,0,0,0-0.1L0,7.9L0,7.9z"/>
	<path class="st0" d="M18,20.5c0-0.5,0-0.9,0-1.4c0-1,0-1.9,0-2.9c0-0.6,0.2-1.1,0.3-1.7c0.2-0.8,0.5-1.5,1-2.2
		c0.4-0.6,0.9-1.2,1.4-1.8c1.5-1.5,3-3,4.5-4.5c0.2-0.2,0.4-0.4,0.6-0.6c0,0,0.1-0.1,0.1-0.1c0.1-0.1,0.2-0.1,0.3,0
		c0.6,0.6,1.1,1.3,1.2,2.1c0.2,0.9-0.1,1.8-0.8,2.5c-1.1,1.1-2.3,2.3-3.4,3.4c-0.4,0.4-0.8,0.9-1.1,1.4c-0.4,0.6-0.5,1.2-0.5,1.9
		c0,0.8,0,1.7,0,2.5c0,0.5-0.1,1.1-0.4,1.5c-0.2,0.4-0.5,0.6-0.9,0.9c-0.4,0.3-0.9,0.5-1.4,0.5c-0.3,0-0.6,0-0.9,0
		c-0.1,0-0.2-0.1-0.2-0.2C18,21.4,18,21,18,20.5L18,20.5L18,20.5z"/>
</g>
<g id="_默认值">
	<rect x="37.3" class="st0" width="1.7" height="27.7"/>
	<g>
		<polygon class="st1" points="87.9,21.8 87.8,21.7 87.8,21.7 87.8,3.9 81.9,3.9 81.9,27.5 93.6,27.5 		"/>
		<polygon class="st1" points="98.4,21.7 90.4,21.7 96.3,27.5 98.4,27.5 		"/>
		<polygon class="st1" points="60.8,12.4 62.8,8 63.5,6.4 64,7.4 67.5,14.9 72.6,4.3 79,4.3 68,27.5 		"/>
		<polygon class="st1" points="48.6,4.3 55.1,4.3 59.7,14 60,14.6 62.9,20.7 62.9,20.8 60.2,26.5 59.7,27.5 56.5,20.9 		"/>
		<polygon class="st1" points="101.8,13.9 101.8,27.5 107.7,27.5 107.7,19.8 		"/>
		<polygon class="st1" points="125.5,3.9 124.5,3.9 113.6,14.8 102.7,3.9 101.8,3.9 101.8,11.2 107.7,17.1 113.6,23.1 119.6,17.1 
			119.6,27.5 125.5,27.5 		"/>
		<path class="st1" d="M149.1,7.3c-2.2-2.2-5.2-3.5-8.4-3.5c-2.7,0-5.2,0.9-7.3,2.5c-0.1,0.1-0.3,0.2-0.4,0.3l4.2,4.2
			c0.1-0.1,0.2-0.1,0.3-0.2c0.9-0.6,2.1-0.9,3.2-0.9c1.6,0,3.1,0.6,4.2,1.8c1.1,1.1,1.8,2.6,1.8,4.2c0,1.1-0.3,2.2-0.9,3.2
			c-0.1,0.1-0.1,0.2-0.2,0.3c1.4,1.4,2.8,2.8,4.2,4.2c0.1-0.1,0.2-0.3,0.3-0.4c1.6-2.1,2.5-4.6,2.5-7.3
			C152.6,12.5,151.3,9.6,149.1,7.3L149.1,7.3z"/>
		<path class="st1" d="M148,25c0.1-0.1,0.3-0.2,0.4-0.3c-1.4-1.4-2.8-2.8-4.2-4.2c-0.1,0.1-0.2,0.1-0.3,0.2
			c-0.9,0.6-2.1,0.9-3.2,0.9c-1.6,0-3.1-0.6-4.2-1.8c-1.1-1.1-1.8-2.6-1.8-4.2c0-1.1,0.3-2.2,0.9-3.2c0.1-0.1,0.1-0.2,0.2-0.3
			c-1.4-1.4-2.8-2.8-4.2-4.2c-0.1,0.1-0.2,0.3-0.3,0.4c-1.6,2.1-2.5,4.6-2.5,7.3c0,3.2,1.2,6.1,3.5,8.4s5.2,3.5,8.4,3.5
			C143.4,27.5,145.9,26.7,148,25L148,25z"/>
		<path class="st1" d="M179.7,15.7V3.9h-5.9v11.8c0,1.6-0.6,3.1-1.8,4.2c-0.3,0.3-0.6,0.6-1,0.8c-0.2,0.1-0.3,0.2-0.5,0.3
			c1.4,1.4,2.8,2.8,4.2,4.2l0.3-0.3c1.4-1.1,2.5-2.5,3.3-4.1C179.2,19.3,179.7,17.5,179.7,15.7L179.7,15.7z"/>
		<path class="st1" d="M172.5,26.6c0.2-0.1,0.4-0.2,0.6-0.3c-1.6-1.6-3.1-3.1-4.7-4.7c-0.1,0-0.1,0-0.2,0c-0.1,0-0.3,0-0.4,0
			c-1.6,0-3.1-0.6-4.2-1.8c-1.1-1.1-1.8-2.6-1.8-4.2V15c-2-2-3.9-3.9-5.9-5.9v6.5c0,3.9,1.9,7.5,5.1,9.8c2,1.4,4.3,2.1,6.7,2.1
			C169.4,27.5,171,27.2,172.5,26.6L172.5,26.6z"/>
		<polygon class="st1" points="161.9,12.4 161.9,3.9 156,3.9 156,6.5 		"/>
		<polygon class="st1" points="206.8,3.9 191.7,3.9 197.5,9.7 206.8,9.7 		"/>
		<path class="st1" d="M206.4,18L206.4,18l-0.1-0.3c0,0,0,0,0-0.1c0,0,0,0,0,0c0-0.1-0.1-0.2-0.1-0.3l0,0c0,0,0,0,0,0c0,0,0,0,0-0.1
			c-0.1-0.1-0.1-0.3-0.2-0.4c0,0,0,0,0,0c-0.1-0.2-0.2-0.4-0.3-0.6c0,0,0,0,0-0.1c0,0-0.1-0.1-0.1-0.1c0,0,0,0,0,0
			c0,0-0.1-0.1-0.1-0.1c0,0,0,0,0,0c0-0.1-0.1-0.1-0.1-0.2c0,0,0,0,0,0c0,0,0,0,0,0c0,0,0-0.1-0.1-0.1c0,0,0,0,0,0c0,0,0,0-0.1-0.1
			c0,0,0-0.1-0.1-0.1c0,0,0-0.1-0.1-0.1c-0.1-0.1-0.2-0.2-0.3-0.3l0,0c0,0-0.1-0.1-0.1-0.1c0,0,0,0-0.1-0.1c0,0,0,0-0.1-0.1
			c0,0,0,0,0,0h0c0,0-0.1-0.1-0.1-0.1c-0.1-0.1-0.1-0.1-0.2-0.1l0,0c-0.1-0.1-0.3-0.2-0.4-0.3c0,0,0,0,0,0c-0.1-0.1-0.1-0.1-0.2-0.1
			c0,0,0,0,0,0c-0.1,0-0.1-0.1-0.2-0.1c-0.1,0-0.1-0.1-0.2-0.1l0,0c-0.1-0.1-0.2-0.1-0.3-0.2c-0.1,0-0.1-0.1-0.2-0.1
			c0,0-0.1,0-0.1,0c-0.1,0-0.2-0.1-0.3-0.1c0,0,0,0,0,0c-0.1,0-0.2-0.1-0.2-0.1c0,0,0,0,0,0c-0.1-0.1-0.2-0.1-0.4-0.1c0,0,0,0,0,0
			c-0.1,0-0.1,0-0.2-0.1c0,0,0,0,0,0c0,0,0,0-0.1,0c0,0,0,0-0.1,0h0c-0.1,0-0.1,0-0.2-0.1c0,0,0,0,0,0c-0.1,0-0.1,0-0.2,0
			c0,0-0.1,0-0.1,0c-0.1,0-0.1,0-0.2,0c0,0,0,0,0,0c-0.1,0-0.1,0-0.1,0l0,0c-0.1,0-0.1,0-0.2,0c0,0,0,0,0,0c0,0,0,0,0,0
			c0,0,0,0-0.1,0c0,0,0,0,0,0c0,0,0,0-0.1,0c-0.1,0-0.1,0-0.2,0c0,0,0,0-0.1,0s-0.1,0-0.1,0h0c0,0-0.1,0-0.1,0h-8.9
			c-0.8,0-1.5-0.7-1.5-1.5s0.7-1.5,1.5-1.5h4.4c-1.9-1.9-3.8-3.8-5.7-5.7c-0.1,0-0.2,0-0.2,0.1c-0.2,0-0.3,0.1-0.5,0.1
			c-1.2,0.3-2.2,1-3.1,1.8s-1.5,1.9-1.9,3.1c-0.2,0.7-0.3,1.4-0.3,2.1s0.1,1.4,0.3,2.1c0.4,1.2,1,2.2,1.9,3.1
			c0.9,0.9,1.9,1.5,3.1,1.9c0.7,0.2,1.4,0.3,2.1,0.3h8.9c0.8,0,1.5,0.7,1.5,1.5s-0.7,1.5-1.5,1.5h-16.3v5.9h16.3
			c1.6,0,3.1-0.5,4.4-1.5c1.2-0.9,2.2-2.3,2.6-3.8c0.2-0.7,0.3-1.4,0.3-2.1S206.7,18.8,206.4,18L206.4,18z"/>
		<polygon class="st1" points="229.9,21.7 216.1,21.7 216.1,20 210.2,14.1 210.2,27.5 229.9,27.5 		"/>
		<polygon class="st1" points="217.3,18.6 229.9,18.6 229.9,12.8 219.8,12.8 216.7,9.7 229.9,9.7 229.9,3.9 210.2,3.9 210.2,11.5 		
			"/>
	</g>
</g>
</svg>
